<?xml version="1.0" encoding="utf-8"?>
<!-- Generator: Adobe Illustrator 21.1.0, SVG Export Plug-In . SVG Version: 6.00 Build 0)  -->
<svg version="1.1" id="Layer_1" xmlns="http://www.w3.org/2000/svg" xmlns:xlink="http://www.w3.org/1999/xlink" x="0px" y="0px"
	 viewBox="0 0 54 54" style="enable-background:new 0 0 54 54;" xml:space="preserve">
<style type="text/css">
	.st0{fill:#1976D2;}
	.st1{fill:#F40C5A;}
	.st2{fill:#FFFFFF;}
	.st3{font-family:'OpenSans-Bold';}
	.st4{font-size:9.5333px;}
</style>
<g>
	<path class="st0" d="M24.1,7.7h-2.4c-0.7,0-1.2,0.5-1.2,1.2s0.5,1.2,1.2,1.2h2.4c0.7,0,1.2-0.5,1.2-1.2S24.8,7.7,24.1,7.7z"/>
	<path class="st0" d="M31.2,7.7h-2.4c-0.7,0-1.2,0.5-1.2,1.2s0.5,1.2,1.2,1.2h2.4c0.7,0,1.2-0.5,1.2-1.2S31.9,7.7,31.2,7.7z"/>
	<path class="st0" d="M48.8,28.9h-1.3c-0.6-4-4-7.1-8.1-7.1h-1.3c-0.5-2.7-2.9-4.7-5.8-4.7h-4.7v-2.4h8.2c0.7,0,1.2-0.5,1.2-1.2V4.2
		c0-0.7-0.5-1.2-1.2-1.2H17.1c-0.7,0-1.2,0.5-1.2,1.2v9.4c0,0.7,0.5,1.2,1.2,1.2h8.2v2.4h-4.7c-2.8,0-5.2,2-5.8,4.7h-1.3
		c-4.1,0-7.5,3.1-8.1,7.1H4.2C3.5,28.9,3,29.4,3,30v4.7c0,0.7,0.5,1.2,1.2,1.2s1.2-0.5,1.2-1.2v-3.5h2.3v3.5c0,0.7,0.5,1.2,1.2,1.2
		s1.2-0.5,1.2-1.2V30c0-0.7-0.5-1.2-1.2-1.2H7.8c0.5-2.7,2.9-4.7,5.8-4.7h1.2v4.7c0,6.1,4.7,11,10.6,11.6V43h-7.1
		c-1.9,0-3.5,1.6-3.5,3.5c0,1.9,1.6,3.5,3.5,3.5h16.4c1.9,0,3.5-1.6,3.5-3.5c0-1.9-1.6-3.5-3.5-3.5h-7v-2.5
		c5.9-0.6,10.6-5.6,10.6-11.6v-4.7h1.2c2.8,0,5.2,2,5.8,4.7h-1.1c-0.7,0-1.2,0.5-1.2,1.2v4.7c0,0.7,0.5,1.2,1.2,1.2s1.2-0.5,1.2-1.2
		v-3.5h2.4v3.5c0,0.7,0.5,1.2,1.2,1.2c0.7,0,1.2-0.5,1.2-1.2V30C50,29.4,49.5,28.9,48.8,28.9z M18.3,12.4v-7h16.4v7H18.3z
		 M34.7,45.3c0.6,0,1.2,0.5,1.2,1.2c0,0.6-0.5,1.2-1.2,1.2H18.3c-0.6,0-1.2-0.5-1.2-1.2c0-0.6,0.5-1.2,1.2-1.2H34.7z M35.9,28.9
		c0,5.2-4.2,9.4-9.4,9.4s-9.4-4.2-9.4-9.4V23c0-1.9,1.6-3.5,3.5-3.5h11.8c1.9,0,3.5,1.6,3.5,3.5V28.9z"/>
</g>
<circle class="st1" cx="26.5" cy="28.5" r="6.5"/>
<text transform="matrix(1 0 0 1 23.4668 31.9668)" class="st2 st3 st4">1</text>
</svg>
