<?xml version="1.0"?>
<svg xmlns="http://www.w3.org/2000/svg" height="512px" viewBox="-85 0 512 512" width="512px"><g><path d="m26.667969 298.667969h94.226562l-19.453125 183.914062c-.085937.554688-.109375 2.195313-.109375 2.75 0 14.699219 11.96875 26.667969 26.667969 26.667969 8.363281 0 16.339844-4.011719 21.632812-11.09375l186.367188-266.238281c3.433594-4.589844 5.332031-10.261719 5.332031-16 0-14.699219-11.964843-26.667969-26.664062-26.667969h-115.328125l19.199218-162.175781c.0625-.617188.105469-2.539063.105469-3.15625.023438-14.699219-11.945312-26.667969-26.644531-26.667969-8.363281 0-16.339844 4.011719-21.800781 11.328125l-164.84375 244.652344c-3.457031 4.5625-5.355469 10.257812-5.355469 16.019531 0 14.699219 11.96875 26.667969 26.667969 26.667969zm157.546875-250.902344-18.753906 158.335937c-.53125 4.542969.894531 9.085938 3.925781 12.5 3.027343 3.414063 7.382812 5.378907 11.96875 5.378907h123.09375l-169.003907 241.425781 19.15625-181.074219c.46875-4.503906-.980468-9.023437-4.007812-12.394531-3.050781-3.351562-7.382812-5.269531-11.925781-5.269531h-101.953125zm0 0" data-original="#000000" class="active-path" data-old_color="#000000" fill="#E67D39"/></g> </svg>
