<svg width="32" height="32" viewBox="0 0 32 32" fill="none" xmlns="http://www.w3.org/2000/svg">
<path d="M16 32C24.8366 32 32 24.8366 32 16C32 7.16344 24.8366 0 16 0C7.16344 0 0 7.16344 0 16C0 24.8366 7.16344 32 16 32Z" fill="#F0C419"/>
<path d="M30.3448 14.3449C30.3452 20.6037 26.6959 26.288 21.005 28.8931C15.3142 31.4982 8.62679 30.5457 3.88961 26.4552C-1.58865 20.1107 -1.24117 10.6134 4.68609 4.68618C10.6133 -1.24107 20.1106 -1.58855 26.4551 3.8897C28.9706 6.79137 30.352 10.5047 30.3448 14.3449Z" fill="#F3D55B"/>
<path d="M18.7586 17.6551H8.82754C8.52283 17.6551 8.27582 17.4081 8.27582 17.1034C8.27582 16.7986 8.52283 16.5516 8.82754 16.5516H18.7586C19.0633 16.5516 19.3103 16.7986 19.3103 17.1034C19.3103 17.4081 19.0633 17.6551 18.7586 17.6551Z" fill="#802D40"/>
<path d="M14.8966 20.9655H12.138C11.2243 20.9645 10.4838 20.224 10.4828 19.3103C10.4828 19.0056 10.7298 18.7586 11.0345 18.7586C11.3392 18.7586 11.5862 19.0056 11.5862 19.3103C11.5866 19.6149 11.8334 19.8617 12.138 19.8621H14.8966C15.2013 19.8621 15.4483 20.1091 15.4483 20.4138C15.4483 20.7185 15.2013 20.9655 14.8966 20.9655Z" fill="#F0C419"/>
<path d="M8.27592 12.138C9.49476 12.138 10.4828 11.1499 10.4828 9.93108C10.4828 8.71224 9.49476 7.72418 8.27592 7.72418C7.05709 7.72418 6.06903 8.71224 6.06903 9.93108C6.06903 11.1499 7.05709 12.138 8.27592 12.138Z" fill="white"/>
<path d="M19.3104 12.138C20.5292 12.138 21.5173 11.1499 21.5173 9.93108C21.5173 8.71224 20.5292 7.72418 19.3104 7.72418C18.0915 7.72418 17.1035 8.71224 17.1035 9.93108C17.1035 11.1499 18.0915 12.138 19.3104 12.138Z" fill="white"/>
<path d="M7.72414 11.0345C8.33356 11.0345 8.82759 10.5405 8.82759 9.93108C8.82759 9.32167 8.33356 8.82764 7.72414 8.82764C7.11473 8.82764 6.6207 9.32167 6.6207 9.93108C6.6207 10.5405 7.11473 11.0345 7.72414 11.0345Z" fill="#2C3E50"/>
<path d="M18.7586 11.0345C19.368 11.0345 19.8621 10.5405 19.8621 9.93108C19.8621 9.32167 19.368 8.82764 18.7586 8.82764C18.1492 8.82764 17.6552 9.32167 17.6552 9.93108C17.6552 10.5405 18.1492 11.0345 18.7586 11.0345Z" fill="#2C3E50"/>
<path d="M8.27588 9.37927C8.58059 9.37927 8.82761 9.13226 8.82761 8.82754C8.82761 8.52283 8.58059 8.27582 8.27588 8.27582C7.97117 8.27582 7.72415 8.52283 7.72415 8.82754C7.72415 9.13226 7.97117 9.37927 8.27588 9.37927Z" fill="white"/>
<path d="M19.3103 9.37927C19.615 9.37927 19.862 9.13226 19.862 8.82754C19.862 8.52283 19.615 8.27582 19.3103 8.27582C19.0056 8.27582 18.7586 8.52283 18.7586 8.82754C18.7586 9.13226 19.0056 9.37927 19.3103 9.37927Z" fill="white"/>
</svg>
