<svg width="32" height="32" viewBox="0 0 32 32" fill="none" xmlns="http://www.w3.org/2000/svg">
<g clip-path="url(#clip0)">
<path d="M32 16C32.001 23.5245 26.7596 30.0333 19.408 31.6368C12.0563 33.2403 4.58058 29.5054 1.44814 22.6639C-1.6843 15.8224 0.37285 7.7227 6.39027 3.20507C12.4077 -1.31255 20.7597 -1.02761 26.4552 3.88963C29.976 6.92847 32 11.3491 32 16Z" fill="#24AE5F"/>
<path d="M30.3448 14.3448C30.3452 20.6036 26.6959 26.2879 21.005 28.893C15.3142 31.4981 8.62679 30.5456 3.88961 26.4552C-1.58865 20.1106 -1.24117 10.6134 4.68609 4.68612C10.6133 -1.24113 20.1106 -1.58861 26.4551 3.88964C28.9706 6.79131 30.352 10.5046 30.3448 14.3448Z" fill="#4FBA6F"/>
<path d="M5.51757 12.1379C5.28325 12.1379 5.07446 11.99 4.99686 11.7689C4.91926 11.5478 4.98979 11.3018 5.17275 11.1554C6.2365 10.2748 7.55096 9.75239 8.92894 9.66241C8.36389 9.46851 7.76983 9.37275 7.17247 9.37927C6.86776 9.37927 6.62075 9.13225 6.62075 8.82754C6.62075 8.52283 6.86776 8.27582 7.17247 8.27582C10.1916 8.27582 11.4419 10.0991 11.4936 10.1767C11.6278 10.3778 11.6154 10.6428 11.4631 10.8306C11.3108 11.0183 11.054 11.085 10.8295 10.9951C9.10841 10.4523 7.229 10.8389 5.86185 12.0169C5.76423 12.0953 5.64276 12.138 5.51757 12.1379Z" fill="#2C3E50"/>
<path d="M23.1724 12.1379C23.0472 12.138 22.9258 12.0953 22.8281 12.0169C21.4603 10.838 19.5796 10.4516 17.8578 10.9958C17.6335 11.0836 17.3782 11.0159 17.2269 10.8285C17.0755 10.6412 17.0631 10.3773 17.1961 10.1766C17.2478 10.0991 18.4981 8.27582 21.5172 8.27582C21.8219 8.27582 22.069 8.52283 22.069 8.82754C22.069 9.13225 21.8219 9.37927 21.5172 9.37927C20.92 9.3727 20.3261 9.46857 19.7613 9.66269C21.1391 9.75244 22.4535 10.2748 23.517 11.1554C23.6999 11.3017 23.7704 11.5477 23.6929 11.7687C23.6154 11.9898 23.4067 12.1378 23.1724 12.1379Z" fill="#2C3E50"/>
<path d="M20.3857 16C20.5419 16.0006 20.6908 16.0669 20.7958 16.1826C20.9008 16.2983 20.9524 16.4528 20.9379 16.6084C20.6229 20.0144 17.7654 22.6199 14.3448 22.6199C10.9243 22.6199 8.06675 20.0144 7.75174 16.6084C7.73728 16.4528 7.78884 16.2983 7.89385 16.1826C7.99886 16.0669 8.14765 16.0006 8.3039 16H20.3857Z" fill="#802D40"/>
<path d="M20.4359 18.6096C19.3883 21.0427 16.9939 22.6194 14.3449 22.6206C13.8226 22.6223 13.3021 22.5612 12.7945 22.4386C12.6116 22.0655 12.5011 21.6611 12.469 21.2468C15.2614 22.0702 18.2639 20.9731 19.8676 18.5434C20.0718 18.5655 20.2594 18.5875 20.4359 18.6096Z" fill="#FF5364"/>
<path d="M19.8676 18.5433C18.2639 20.973 15.2613 22.0702 12.469 21.2468C12.4261 20.5186 12.7091 19.809 13.2414 19.3102C14.3669 18.1847 17.7931 18.3337 19.8676 18.5433Z" fill="#FB7B76"/>
</g>
<defs>
<clipPath id="clip0">
<rect width="32" height="32" fill="white"/>
</clipPath>
</defs>
</svg>
