<svg width="32" height="32" viewBox="0 0 32 32" fill="none" xmlns="http://www.w3.org/2000/svg">
<path d="M32 16C32 24.84 24.83 32 16 32C7.16 32 0 24.84 0 16C0 7.17 7.16 0 16 0C24.83 0 32 7.17 32 16Z" fill="#E24B4B"/>
<path d="M32 16C32 24.84 24.83 32 16 32C10.96 32 6.45998 29.67 3.53998 26.03C6.27998 28.23 9.74998 29.54 13.54 29.54C22.37 29.54 29.54 22.38 29.54 13.54C29.54 9.74998 28.23 6.27998 26.02 3.53998C29.67 6.46998 32 10.96 32 16Z" fill="#D03F3F"/>
<path d="M12.717 12.8471C12.515 12.8471 12.324 12.7491 12.207 12.5831C11.1 11.0211 9.58902 10.0251 7.45002 9.45106C7.11702 9.36106 6.91902 9.01806 7.00902 8.68506C7.09902 8.35106 7.44002 8.15606 7.77502 8.24406C9.84202 8.80006 11.452 9.75306 12.668 11.1491L13.545 9.79306C13.731 9.50306 14.12 9.42006 14.408 9.60706C14.698 9.79506 14.781 10.1811 14.594 10.4711L13.242 12.5611C13.13 12.7351 12.938 12.8421 12.731 12.8471C12.725 12.8471 12.72 12.8471 12.717 12.8471Z" fill="#3E4347"/>
<path d="M10.138 18.5311C11.5331 18.5311 12.664 17.2453 12.664 15.6591C12.664 14.073 11.5331 12.7871 10.138 12.7871C8.74293 12.7871 7.612 14.073 7.612 15.6591C7.612 17.2453 8.74293 18.5311 10.138 18.5311Z" fill="#3E4347"/>
<path d="M19.283 12.8471C19.278 12.8471 19.274 12.8471 19.269 12.8471C19.062 12.8431 18.871 12.7351 18.757 12.5611L17.406 10.4711C17.219 10.1811 17.302 9.79405 17.592 9.60705C17.881 9.41905 18.269 9.50305 18.456 9.79305L19.331 11.1481C20.548 9.75305 22.157 8.79905 24.225 8.24405C24.56 8.15305 24.901 8.35105 24.991 8.68505C25.081 9.01805 24.883 9.36105 24.55 9.45105C22.411 10.0261 20.9 11.0211 19.792 12.5841C19.676 12.7491 19.485 12.8471 19.283 12.8471Z" fill="#3E4347"/>
<path d="M21.862 18.5311C23.2571 18.5311 24.388 17.2453 24.388 15.6591C24.388 14.073 23.2571 12.7871 21.862 12.7871C20.467 12.7871 19.336 14.073 19.336 15.6591C19.336 17.2453 20.467 18.5311 21.862 18.5311Z" fill="#3E4347"/>
<path d="M20.601 25.0891C19.422 23.8561 17.736 23.1501 15.973 23.1501C14.21 23.1501 12.524 23.8571 11.345 25.0891C10.962 25.4891 10.328 25.5011 9.93099 25.1201C9.53199 24.7381 9.51799 24.1051 9.89999 23.7061C11.455 22.0811 13.668 21.1501 15.973 21.1501C18.279 21.1501 20.492 22.0821 22.046 23.7061C22.428 24.1051 22.414 24.7381 22.015 25.1201C21.618 25.5011 20.984 25.4891 20.601 25.0891Z" fill="#3E4347"/>
<path d="M23.267 15.264C23.051 15.351 22.776 15.17 22.646 14.858C22.524 14.545 22.593 14.223 22.809 14.136C23.033 14.048 23.309 14.229 23.43 14.542C23.56 14.853 23.483 15.177 23.267 15.264Z" fill="#5A5F63"/>
<path d="M11.439 15.264C11.223 15.351 10.948 15.17 10.818 14.858C10.697 14.545 10.765 14.223 10.982 14.136C11.206 14.048 11.482 14.229 11.603 14.542C11.732 14.853 11.655 15.177 11.439 15.264Z" fill="#5A5F63"/>
</svg>
