<svg xmlns="http://www.w3.org/2000/svg" width="35.575" height="35.575" viewBox="0 0 35.575 35.575">
  <path id="Icon_ionic-md-happy" data-name="Icon ionic-md-happy" d="M21.162,3.375A17.787,17.787,0,1,0,38.95,21.162,17.783,17.783,0,0,0,21.162,3.375Zm0,32.017a14.23,14.23,0,1,1,14.23-14.23A14.272,14.272,0,0,1,21.162,35.392Zm6.226-16.009a2.668,2.668,0,1,0-2.668-2.668A2.62,2.62,0,0,0,27.388,19.384Zm-12.451,0a2.668,2.668,0,1,0-2.668-2.668A2.62,2.62,0,0,0,14.937,19.384Zm6.226,11.562a9.692,9.692,0,0,0,9.072-6.226H12.091A9.692,9.692,0,0,0,21.162,30.946Z" transform="translate(-3.375 -3.375)" fill="#fff"/>
</svg>
