<svg xmlns="http://www.w3.org/2000/svg" width="19.061" height="27.724" viewBox="0 0 19.061 27.724">
  <path id="Icon_awesome-microphone" data-name="Icon awesome-microphone" d="M9.53,19.061a5.2,5.2,0,0,0,5.2-5.2V5.2a5.2,5.2,0,0,0-10.4,0v8.664A5.2,5.2,0,0,0,9.53,19.061ZM18.194,10.4h-.866a.866.866,0,0,0-.866.866v2.6a6.939,6.939,0,0,1-7.624,6.9A7.142,7.142,0,0,1,2.6,13.554V11.263a.866.866,0,0,0-.866-.866H.866A.866.866,0,0,0,0,11.263v2.175a9.829,9.829,0,0,0,8.231,9.838v1.849H5.2a.866.866,0,0,0-.866.866v.866a.866.866,0,0,0,.866.866h8.664a.866.866,0,0,0,.866-.866v-.866a.866.866,0,0,0-.866-.866H10.83V23.3a9.54,9.54,0,0,0,8.231-9.434v-2.6A.866.866,0,0,0,18.194,10.4Z" fill="#a8a6a6"/>
</svg>
