<svg id="robot" xmlns="http://www.w3.org/2000/svg" xmlns:xlink="http://www.w3.org/1999/xlink" width="106.28" height="108.291" viewBox="0 0 106.28 108.291">
  <defs>
    <linearGradient id="linear-gradient" x1="0.274" y1="0.083" x2="0.591" y2="0.678" gradientUnits="objectBoundingBox">
      <stop offset="0" stop-color="#302769"/>
      <stop offset="1" stop-color="#5e35b0"/>
    </linearGradient>
  </defs>
  <path id="Path_1" data-name="Path 1" d="M53.538,0A53.14,53.14,0,1,0,71.587,103.1l29.549,5.169a1.547,1.547,0,0,0,1.691-2.13L94.607,86.81a52.615,52.615,0,0,0,12.071-33.67A53.2,53.2,0,0,0,53.538,0ZM100.16,71.365a49.881,49.881,0,0,1-8.527,14.176,1.548,1.548,0,0,0-.246,1.609l7.476,17.578L71.711,99.979a1.474,1.474,0,0,0-.266-.023,1.557,1.557,0,0,0-.538.1A49.927,49.927,0,1,1,100.16,71.365Zm0,0" transform="translate(-0.398)" fill="url(#linear-gradient)"/>
  <path id="Path_2" data-name="Path 2" d="M120.714,111.2a7.245,7.245,0,0,0,5.754,7.138v7.146a11.459,11.459,0,0,0-2.786-.65,9.323,9.323,0,0,0-9.156-7.783h-9.211V113.2a3.422,3.422,0,0,0-3.423-3.373H92.933v-3.8a1.548,1.548,0,1,0-3.1,0v3.8H81.231a3.283,3.283,0,0,0-3.26,3.373v3.85H68.6a9.272,9.272,0,0,0-9.2,9.344v22.9a9.222,9.222,0,0,0,9.2,9.287h45.929a9.3,9.3,0,0,0,9.158-7.754,13.078,13.078,0,0,0,11.639-12.983,13.362,13.362,0,0,0-5.76-10.823V118.34a7.3,7.3,0,1,0-8.85-7.138Zm-39.647,2c0-.152.013-.277.164-.277h20.661a.328.328,0,0,1,.327.277v3.85H81.067Zm39.726,36.1a6.191,6.191,0,0,1-6.191,6.191H68.685a6.191,6.191,0,0,1-6.191-6.191V126.34a6.191,6.191,0,0,1,6.191-6.191H114.6a6.191,6.191,0,0,1,6.191,6.191Zm11.514-11.45a10.091,10.091,0,0,1-8.418,9.846V128a10.091,10.091,0,0,1,8.418,9.846ZM132.23,111.2a4.21,4.21,0,1,1-4.208-4.209,4.211,4.211,0,0,1,4.208,4.209Zm0,0" transform="translate(-44.178 -77.095)" fill="url(#linear-gradient)"/>
  <path id="Path_3" data-name="Path 3" d="M104.749,207.9h-.069a5.363,5.363,0,0,0-5.282,5.265v3.073a1.589,1.589,0,0,0,1.671,1.464h7.291a1.537,1.537,0,0,0,1.614-1.464v-3.073A5.315,5.315,0,0,0,104.749,207.9Zm2.13,6.707h-4.385v-1.442a2.267,2.267,0,0,1,2.187-2.169h.069a2.217,2.217,0,0,1,2.13,2.169Zm0,0" transform="translate(-73.86 -154.268)" fill="url(#linear-gradient)"/>
  <path id="Path_4" data-name="Path 4" d="M233.525,207.9h-.07a5.176,5.176,0,0,0-5.061,5.265v3.073a1.4,1.4,0,0,0,1.45,1.464h7.292a1.5,1.5,0,0,0,1.576-1.464v-3.073A5.281,5.281,0,0,0,233.525,207.9Zm2.092,6.707h-4.127v-1.442a2.079,2.079,0,0,1,1.966-2.169h.07a2.184,2.184,0,0,1,2.092,2.169Zm0,0" transform="translate(-169.578 -154.268)" fill="url(#linear-gradient)"/>
  <path id="Path_5" data-name="Path 5" d="M165.637,256.9H151.054a1.619,1.619,0,0,0-1.656,1.519v.07a8.839,8.839,0,0,0,8.878,8.73h.137a8.757,8.757,0,0,0,8.784-8.73v-.07a1.533,1.533,0,0,0-1.561-1.519Zm-7.223,7.223h-.137a5.733,5.733,0,0,1-5.481-4.127h11.1A5.733,5.733,0,0,1,158.414,264.12Zm0,0" transform="translate(-110.962 -190.628)" fill="url(#linear-gradient)"/>
</svg>
