<svg xmlns="http://www.w3.org/2000/svg" width="45" height="45" viewBox="0 0 45 45">
  <g id="user-avatar" transform="translate(-991 -475)">
    <circle id="Ellipse_3" data-name="Ellipse 3" cx="22.5" cy="22.5" r="22.5" transform="translate(991 475)" fill="#a8a6a6"/>
    <g id="user" transform="translate(996 479.989)">
      <g id="Group_30" data-name="Group 30" transform="translate(0 0.011)">
        <path id="Path_35" data-name="Path 35" d="M30.144,5.4A17.492,17.492,0,1,0,5.385,30.1c.01.01.014.025.024.034.1.1.211.18.314.274.281.25.562.509.858.75.159.125.324.25.486.365.28.209.56.417.852.61.2.125.4.25.607.375.27.162.539.326.817.475.236.125.477.232.717.346.262.125.521.25.79.362s.539.2.811.3.507.187.768.267c.295.089.6.157.9.231.25.061.492.131.75.181.345.069.695.112,1.045.16.216.03.427.072.646.094.572.056,1.15.087,1.732.087s1.16-.031,1.732-.087c.219-.021.43-.064.646-.094.35-.048.7-.091,1.045-.16.25-.05.5-.125.75-.181.3-.074.6-.142.9-.231.261-.08.514-.177.768-.267s.545-.187.811-.3.527-.239.79-.362c.24-.114.481-.221.717-.346.279-.149.547-.312.817-.475.2-.125.409-.239.607-.375.292-.192.572-.4.852-.61.162-.125.327-.237.486-.365.3-.237.577-.49.858-.75.1-.094.212-.176.314-.274.01-.009.014-.024.024-.034A17.473,17.473,0,0,0,30.144,5.4Zm-2.809,23.4c-.227.2-.462.39-.7.574-.14.107-.28.214-.424.316-.226.164-.456.319-.69.467-.17.109-.344.214-.519.316q-.33.187-.67.375c-.2.1-.4.2-.609.294s-.431.2-.652.285-.456.172-.687.25c-.211.072-.422.147-.636.211-.25.075-.511.136-.77.2-.2.047-.4.1-.607.141-.3.057-.6.1-.9.139-.172.022-.344.054-.517.071-.48.046-.966.074-1.457.074s-.977-.027-1.457-.074c-.174-.017-.345-.049-.517-.071-.3-.041-.606-.081-.9-.139-.2-.04-.4-.094-.607-.141-.259-.062-.516-.125-.77-.2-.214-.064-.425-.139-.636-.211-.231-.08-.462-.161-.687-.25s-.437-.186-.652-.285-.409-.191-.609-.294c-.226-.117-.45-.241-.67-.375-.175-.1-.349-.207-.519-.316-.234-.149-.464-.3-.69-.467-.144-.1-.284-.209-.424-.316-.237-.184-.472-.375-.7-.574-.055-.041-.1-.094-.159-.141a10.025,10.025,0,0,1,6.814-9.366,7.409,7.409,0,0,0,6.365,0,10.026,10.026,0,0,1,6.814,9.366C27.439,28.7,27.389,28.746,27.335,28.792ZM13.137,10.03a5,5,0,1,1,6.807,6.807.026.026,0,0,0-.021.007,5.294,5.294,0,0,1-1.045.442c-.065.019-.125.044-.194.06-.125.033-.256.055-.385.077a5.062,5.062,0,0,1-.733.074h-.142a5.061,5.061,0,0,1-.733-.074c-.125-.022-.257-.045-.385-.077-.066-.016-.125-.041-.194-.06a5.29,5.29,0,0,1-1.045-.442l-.022-.007A5,5,0,0,1,13.137,10.03ZM29.708,26.173h0a12.558,12.558,0,0,0-6.69-8.613,7.5,7.5,0,1,0-11.046,0,12.558,12.558,0,0,0-6.69,8.613,15,15,0,1,1,24.427,0Z" transform="translate(0 -0.011)" fill="#fff"/>
      </g>
    </g>
  </g>
</svg>
