<svg xmlns="http://www.w3.org/2000/svg" width="26.04" height="26.04" viewBox="0 0 26.04 26.04">
  <g id="Icon_ionic-ios-expand" data-name="Icon ionic-ios-expand" transform="translate(-4.5 -4.5)">
    <path id="Path_40" data-name="Path 40" d="M7.782,6.4h5.269a.941.941,0,0,0,.943-.943V5.443a.941.941,0,0,0-.943-.943H5.443a.941.941,0,0,0-.943.943v7.609a.941.941,0,0,0,.943.943h.014a.941.941,0,0,0,.943-.943V7.782l7.941,7.887A.933.933,0,0,0,15,15.94a.912.912,0,0,0,.665-.278.941.941,0,0,0,0-1.329Z" transform="translate(0 0)" fill="#fff"/>
    <path id="Path_41" data-name="Path 41" d="M30.136,4.5H22.527a.941.941,0,0,0-.943.943v.014a.941.941,0,0,0,.943.943H27.8L19.909,14.34a.942.942,0,0,0,1.329,1.336l7.941-7.893v5.269a.941.941,0,0,0,.943.943h.014a.941.941,0,0,0,.943-.943V5.443A.941.941,0,0,0,30.136,4.5Z" transform="translate(-0.538 0)" fill="#fff"/>
    <path id="Path_42" data-name="Path 42" d="M15,19.631a.933.933,0,0,0-.665.271L6.4,27.8V22.527a.941.941,0,0,0-.943-.943H5.443a.941.941,0,0,0-.943.943v7.609a.941.941,0,0,0,.943.943h7.609a.941.941,0,0,0,.943-.943v-.014a.941.941,0,0,0-.943-.943H7.782l7.887-7.941A.943.943,0,0,0,15,19.631Z" transform="translate(0 -0.538)" fill="#fff"/>
    <path id="Path_43" data-name="Path 43" d="M30.136,21.585h-.014a.941.941,0,0,0-.943.943V27.8L21.239,19.91a.933.933,0,0,0-.665-.271.912.912,0,0,0-.665.278.941.941,0,0,0,0,1.329L27.8,29.18H22.527a.941.941,0,0,0-.943.943v.014a.941.941,0,0,0,.943.943h7.609a.941.941,0,0,0,.943-.943V22.527A.941.941,0,0,0,30.136,21.585Z" transform="translate(-0.538 -0.538)" fill="#fff"/>
  </g>
</svg>
