<svg xmlns="http://www.w3.org/2000/svg" width="40.5" height="40.5" viewBox="0 0 40.5 40.5">
  <path id="Icon_metro-warning" data-name="Icon metro-warning" d="M22.821,5.6,39.792,39.422H5.849L22.821,5.6Zm0-3.669a2.927,2.927,0,0,0-2.408,1.766L3.126,38.147c-1.324,2.355-.2,4.281,2.5,4.281H40.012c2.7,0,3.828-1.926,2.5-4.281h0L25.229,3.694a2.927,2.927,0,0,0-2.408-1.766Zm2.531,32.906A2.531,2.531,0,1,1,22.821,32.3,2.531,2.531,0,0,1,25.352,34.834Zm-2.531-5.063a2.531,2.531,0,0,1-2.531-2.531V19.647a2.531,2.531,0,1,1,5.063,0v7.594A2.531,2.531,0,0,1,22.821,29.772Z" transform="translate(-2.571 -1.928)" fill="#c2923a"/>
</svg>
