<svg xmlns="http://www.w3.org/2000/svg" width="35.575" height="35.575" viewBox="0 0 35.575 35.575">
  <g id="Icon_ionic-md-thinking" data-name="Icon ionic-md-thinking" transform="translate(-3.375 -3.375)">
    <path id="Path_91" data-name="Path 91" d="M21.162,3.375A17.787,17.787,0,1,0,38.95,21.162,17.783,17.783,0,0,0,21.162,3.375Zm0,32.017a14.23,14.23,0,1,1,14.23-14.23A14.272,14.272,0,0,1,21.162,35.392Z" fill="#fff"/>
    <path id="Path_92" data-name="Path 92" d="M23.593,17.486a2.668,2.668,0,1,0-2.668-2.668A2.62,2.62,0,0,0,23.593,17.486Z" transform="translate(3.795 1.897)" fill="#fff"/>
    <path id="Path_93" data-name="Path 93" d="M13.356,17.486a2.668,2.668,0,1,0-2.668-2.668A2.62,2.62,0,0,0,13.356,17.486Z" transform="translate(1.581 1.897)" fill="#fff"/>
    <rect id="Rectangle_127" data-name="Rectangle 127" width="16" height="5" rx="2.5" transform="translate(12.95 24.501)" fill="#fff"/>
  </g>
</svg>
