<svg xmlns="http://www.w3.org/2000/svg" width="35.575" height="35.575" viewBox="0 0 35.575 35.575">
  <g id="Icon_ionic-md-sad" data-name="Icon ionic-md-sad" transform="translate(-3.375 -3.375)">
    <path id="Path_90" data-name="Path 90" d="M19.554,20.25a9.671,9.671,0,0,0-8.74,5.473h17.48A9.671,9.671,0,0,0,19.554,20.25Z" transform="translate(1.609 3.649)" fill="#fff"/>
    <path id="Path_91" data-name="Path 91" d="M21.162,3.375A17.787,17.787,0,1,0,38.95,21.162,17.783,17.783,0,0,0,21.162,3.375Zm0,32.017a14.23,14.23,0,1,1,14.23-14.23A14.272,14.272,0,0,1,21.162,35.392Z" fill="#fff"/>
    <path id="Path_92" data-name="Path 92" d="M23.593,17.486a2.668,2.668,0,1,0-2.668-2.668A2.62,2.62,0,0,0,23.593,17.486Z" transform="translate(3.795 1.897)" fill="#fff"/>
    <path id="Path_93" data-name="Path 93" d="M13.356,17.486a2.668,2.668,0,1,0-2.668-2.668A2.62,2.62,0,0,0,13.356,17.486Z" transform="translate(1.581 1.897)" fill="#fff"/>
  </g>
</svg>
